<svg id="Layer_1" data-name="Layer 1" xmlns="http://www.w3.org/2000/svg" viewBox="0 0 1728 1296"><defs><style>.cls-1{fill:#00a6fb;}.cls-2{fill:#0dab76;}</style></defs><title>LOGOSVG</title><path class="cls-1" d="M320.3,497.06H206.09V420.92h311v76.14H402.88v299.2H320.3Z"/><path class="cls-1" d="M570.17,508.86h81.5v287.4h-81.5Z"/><path class="cls-1" d="M736.92,420.92h89l98.66,158.71,98.66-158.71h89V796.26h-82v-245L924.59,711.54h-2.15L817.88,552.82V796.26h-81Z"/><path class="cls-1" d="M1202.33,420.92h283.11v73.46H1284.37v76.14h176.94V644H1284.37V722.8h203.75v73.46H1202.33Z"/><path class="cls-2" d="M610.92,405A46.1,46.1,0,1,0,657,451.1,46.1,46.1,0,0,0,610.92,405Zm0,82.11a36,36,0,1,1,36-36A36,36,0,0,1,610.92,487.11Z"/><rect class="cls-2" x="607.53" y="420.01" width="6.78" height="34.48" rx="3.39" ry="3.39"/><rect class="cls-2" x="614.68" y="443.88" width="6.78" height="23.98" rx="3.39" ry="3.39" transform="translate(1340.38 194.89) rotate(123.72)"/><circle class="cls-2" cx="610.92" cy="451.1" r="3.39"/></svg>